Format : AVI
Format/Info : Audio Video Interleave
File size : 1.26 GiB
Duration : 1h 24mn
Overall bit rate : 2 133 Kbps
Writing library : VirtualDub build 32842/release

Video
ID : 0
Format : MPEG-4 Visual
Format profile : Advanced Simple@L5
Format settings, BVOP : 2
Format settings, QPel : No
Format settings, GMC : No warppoints
Format settings, Matrix : Default (H.263)
Muxing mode : Packed bitstream
Codec ID : XVID
Codec ID/Hint : XviD
Duration : 1h 24mn
Bit rate : 1 676 Kbps
Width : 720 pixels
Height : 400 pixels
Display aspect ratio : 16:9
Frame rate : 23.976 fps
Color space : YUV
Chroma subsampling : 4:2:0
Bit depth : 8 bits
Scan type : Progressive
Compression mode : Lossy
Bits/(Pixel*Frame) : 0.243
Stream size : 1 017 MiB (79%)
Writing library : XviD 64

Audio
ID : 1
Format : AC-3
Format/Info : Audio Coding 3
Mode extension : CM (complete main)
Codec ID : 2000
Duration : 1h 24mn
Bit rate mode : Constant
Bit rate : 448 Kbps
Channel(s) : 6 channels
Channel positions : Front: L C R, Side: L R, LFE
Sampling rate : 48.0 KHz
Bit depth : 16 bits
Compression mode : Lossy
Stream size : 272 MiB (21%)
Alignment : Split accross interleaves
Interleave, duration : 42 ms (1.00 video frame)
Interleave, preload duration : 500 ms





 
http://www.imdb.com/title/tt1753968/







Jackass films aren’t made with a shooting script and meticulous camera work. The process involves a lot of trial and error, and so for every movie, it seems there’s enough footage to make a number of films. And where the theatrical Jackass 3-D focuses on the stuff that went great, Jackass 3.5 offers the stunts that were too stupid, too lame, too familiar, or too dangerous to make the theatrical release. It’s the whole gang: Johnny Knoxville, Steve-O, Bam Margera, Ryan Dunn, Chris Pontius, Ehren McGhehey, Dave England, Preston Lacy and Wee-Man. And they’re there to celebrate their failures.




 
http://www.leetleech.org/images/67973758405248895958.png
 
http://www.leetleech.org/images/46372511060798593092.png
 
http://www.leetleech.org/images/93225585843895377336.png










Source Used

Jackass 3 5 2011 720p BluRay X264-7SinS .............. Thanks


Greetz to IMAGiNE,Flawl3ss,DiLLoN,BDK,NOiR,TOXiC,THC,Ez,Rx,Boobyblue,TaRiQ786,LKRG,



